PathFileType	4	(X/Y/Z)	Kaydara	
DataRate	CameraRate	NumFrames	NumMarkers	Units	OrigDataRate	OrigDataStartFrame	OrigNumFrames	
120.00	120.00	4	72	mm	120.00	68	268	
Frame#	Time	Hips			RightUpLeg			RightLeg			RightFoot			RightFoot_End			LeftUpLeg			LeftLeg			LeftFoot			LeftFoot_End			Spine			Spine1			Spine2			Spine3			Neck			Head			Head_End			RightShoulder			RightArm			RightForeArm			RightHand			RightHandThumb1			RightHandThumb2			RightHandThumb3			RightHandThumb3_End			RightInHandIndex			RightHandIndex1			RightHandIndex2			RightHandIndex3			RightHandIndex3_End			RightInHandMiddle			RightHandMiddle1			RightHandMiddle2			RightHandMiddle3			RightHandMiddle3_End			RightInHandRing			RightHandRing1			RightHandRing2			RightHandRing3			RightHandRing3_End			RightInHandPinky			RightHandPinky1			RightHandPinky2			RightHandPinky3			RightHandPinky3_End			LeftShoulder			LeftArm			LeftForeArm			LeftHand			LeftHandThumb1			LeftHandThumb2			LeftHandThumb3			LeftHandThumb3_End			LeftInHandIndex			LeftHandIndex1			LeftHandIndex2			LeftHandIndex3			LeftHandIndex3_End			LeftInHandMiddle			LeftHandMiddle1			LeftHandMiddle2			LeftHandMiddle3			LeftHandMiddle3_End			LeftInHandRing			LeftHandRing1			LeftHandRing2			LeftHandRing3			LeftHandRing3_End			LeftInHandPinky			LeftHandPinky1			LeftHandPinky2			LeftHandPinky3			LeftHandPinky3_End			
		X1	Y1	Z1	X2	Y2	Z2	X3	Y3	Z3	X4	Y4	Z4	X5	Y5	Z5	X6	Y6	Z6	X7	Y7	Z7	X8	Y8	Z8	X9	Y9	Z9	X10	Y10	Z10	X11	Y11	Z11	X12	Y12	Z12	X13	Y13	Z13	X14	Y14	Z14	X15	Y15	Z15	X16	Y16	Z16	X17	Y17	Z17	X18	Y18	Z18	X19	Y19	Z19	X20	Y20	Z20	X21	Y21	Z21	X22	Y22	Z22	X23	Y23	Z23	X24	Y24	Z24	X25	Y25	Z25	X26	Y26	Z26	X27	Y27	Z27	X28	Y28	Z28	X29	Y29	Z29	X30	Y30	Z30	X31	Y31	Z31	X32	Y32	Z32	X33	Y33	Z33	X34	Y34	Z34	X35	Y35	Z35	X36	Y36	Z36	X37	Y37	Z37	X38	Y38	Z38	X39	Y39	Z39	X40	Y40	Z40	X41	Y41	Z41	X42	Y42	Z42	X43	Y43	Z43	X44	Y44	Z44	X45	Y45	Z45	X46	Y46	Z46	X47	Y47	Z47	X48	Y48	Z48	X49	Y49	Z49	X50	Y50	Z50	X51	Y51	Z51	X52	Y52	Z52	X53	Y53	Z53	X54	Y54	Z54	X55	Y55	Z55	X56	Y56	Z56	X57	Y57	Z57	X58	Y58	Z58	X59	Y59	Z59	X60	Y60	Z60	X61	Y61	Z61	X62	Y62	Z62	X63	Y63	Z63	X64	Y64	Z64	X65	Y65	Z65	X66	Y66	Z66	X67	Y67	Z67	X68	Y68	Z68	X69	Y69	Z69	X70	Y70	Z70	X71	Y71	Z71	X72	Y72	Z72	

68	0.558	7446.805	859.65103	-201.189	7538.009003542418	858.8913126264247	-229.84529253235888	7397.718230957071	467.44613156412584	-283.1976390665243	7425.611607154461	44.510927230633456	-337.3750273442644	7343.544795237545	-32.88424655246124	-177.91048023569456	7364.987675522004	832.4791127322067	-158.85176922231335	7245.408601792567	434.89851517780477	-103.65284213672317	7193.56371288733	59.54630530429938	72.77358770367618	7225.970395957682	19.16956308165815	256.200959488305	7400.196897013078	981.6820584807183	-259.32007477805536	7346.947752935355	1047.0088333038912	-307.3862414135698	7285.363607899989	1109.0034351004433	-358.111329393566	7217.864272070995	1157.9548255664383	-407.7622570331245	7145.0453728849425	1210.7672042332104	-457.45531644567086	7104.562135574535	1283.9940484354393	-412.6959105611697	7081.862705910082	1368.217224243666	-278.935567282006	7189.939095332369	1202.1633212495371	-460.1871076099215	7275.039554094616	1212.9584067432543	-539.4185619643321	7352.886416883859	989.6753409196621	-575.7510893125996	7451.36379013763	885.8389660343952	-675.4810447349097	7460.045855938445	891.2430972209798	-691.9299281743416	7453.724328911748	890.0891088371425	-713.5273358777581	7449.991105062521	886.9188833513512	-727.5501169547741	7447.451266351154	882.2514471102631	-738.3697239837386	7465.177961169533	883.1763112250865	-689.1982824910262	7480.381949546622	870.6713206639856	-708.955332884159	7480.615675778789	862.3911933356811	-725.8706778681524	7473.356817333977	860.3732773498724	-737.4208706572214	7462.354328112387	860.8142236597612	-747.6783783667366	7465.976793546481	877.1948817302399	-685.8932643077542	7481.241346907137	861.7624134863851	-703.3751078884513	7481.539551751861	851.9789970070793	-721.3368933600973	7472.802701987156	849.1854538541081	-735.0336580648708	7460.774037391168	849.4934043053222	-746.1414714452806	7466.26564753583	873.2658655628981	-683.0192282125486	7480.5255104877115	855.9595373014479	-696.0895491916622	7480.804244914359	846.6921603265079	-711.2107572011547	7472.386835344319	843.6045290205279	-724.1386031382373	7461.081579463024	843.7078335041911	-734.4482749113286	7465.272174242714	869.2749804373419	-679.4090756709534	7478.121029980582	850.8626723047189	-689.0608146760264	7478.310570139911	842.3626706098735	-700.278927444296	7472.154594383366	839.5885790939253	-709.2778396997896	7462.130603285599	839.379695299772	-718.1626539614242	7147.800188630746	1187.3295465629656	-419.4850144802406	7087.2062143967	1114.4775680466269	-347.89451025968907	7197.764876765868	990.5252584400787	-529.394984281357	7397.612754616701	925.37965823529	-519.7126629911736	7388.429081891747	937.0488792184098	-531.2007050732273	7394.579702375168	937.9782032981776	-560.5068740114095	7399.4742387580945	936.2372857249155	-582.4880020375042	7404.077502988541	932.7430005903155	-602.1577839318247	7388.257421921305	930.0152260223496	-536.8390849395151	7382.811391119898	926.2651955942122	-573.4015953555333	7387.141780160205	921.2176165427627	-604.4644565988257	7394.2159088040835	918.9776656955673	-622.7425753213383	7403.026907376452	917.7294740296242	-637.1741391343335	7390.495426776584	923.5346253391675	-540.1099995034277	7386.391752011712	916.3722926747026	-577.53960881487	7391.440175752942	910.0183991481254	-611.7553813762646	7400.12991407396	906.9100225500896	-633.9608172310296	7409.846127921195	905.3469226852321	-649.8262093316594	7392.136008856737	919.0601719948659	-541.4483814827031	7389.649723191242	908.7817141076413	-576.0390258803344	7394.387545565273	902.3901503152523	-606.1301542872937	7402.948780842114	898.9386274921842	-627.6916656621253	7412.169437751942	897.2541364925345	-642.6767065427273	7394.811245067825	913.9456146486552	-542.2428587658918	7393.911452351593	901.3921326195353	-574.3382472764617	7398.243442321613	894.9872331830294	-598.7024955661221	7404.748349289066	891.8472227664224	-614.5593784771572	7413.066158560689	889.9968099216264	-627.908406534542
69	0.567	7446.805	859.65103	-201.189	7538.43831339557	859.2258462815304	-229.41842536393722	7397.930468624061	467.70285257063176	-282.1260392879708	7425.896906736084	44.46405188638602	-335.29365155950825	7343.631939049337	-32.78073593584347	-175.64081998068912	7364.5434249861955	832.1222635524333	-159.31167899770014	7244.928102033212	434.56202351563235	-104.01975734645065	7193.144947592665	59.718670945032706	73.64391861983472	7225.761053853976	19.84735217181231	257.1791975196767	7400.236635329522	981.759204817587	-259.2023979721789	7347.070197886057	1047.187695908603	-307.2390587334213	7285.602724373205	1109.327840671509	-357.9606842665057	7218.230216299451	1158.4361531193963	-407.6697538664648	7145.548267315822	1211.4171087172922	-457.4374263079601	7105.300655159412	1284.7083701304582	-412.53303534279075	7082.434663772809	1368.7669754086246	-278.66941277323895	7190.5832848446735	1203.0333492923644	-460.0133258124605	7276.568467022347	1215.1478786689986	-538.9741356160745	7356.856100680516	992.1866753780521	-576.9658780248612	7457.884685003364	891.2951979896299	-679.2066548334737	7466.846360664659	897.3344537670589	-695.4541579997139	7460.8613264639735	896.6730496270006	-717.371649518255	7457.375016410202	893.8181646421428	-731.687203547287	7455.051781055619	889.3899215701715	-742.810651727307	7472.053012534712	889.2429284520156	-692.9224478201647	7487.828477431058	877.4976002697132	-713.0752134910751	7488.439617079066	869.6592219201211	-730.4370858477446	7481.3496735417675	867.8318539955106	-742.2712096580192	7470.44266304126	868.3737974494151	-752.767993454572	7472.865206415066	883.155601190971	-689.8018171205047	7488.69439384408	868.4068294158438	-707.7693159688565	7489.404315787671	859.0889033320267	-726.241611340026	7480.8711997882065	856.5173093801058	-740.2920899869059	7468.946978992637	856.9319089988908	-751.6671408900329	7473.149318986682	879.1332353797299	-687.0467503854692	7487.912266603557	862.3610956446404	-700.6520716211726	7488.548842379939	853.4814436095008	-716.2412637200133	7480.327412179762	850.5983416461459	-729.5225207036062	7469.1201047258	850.7973936445736	-740.089256629422	7472.1306590166305	875.0060357255835	-683.5717240981295	7485.426946466667	857.0027506140405	-693.7935601895063	7485.899255714197	848.7828096038475	-705.4200095692196	7479.884401040368	846.1431898205194	-714.6929510784703	7469.946124832168	846.0106553659701	-723.8148342586097	7148.048857109275	1187.6332591848295	-419.53846768003217	7086.617548061709	1113.8064887834498	-348.7554157087682	7198.429293152824	991.9058912744059	-532.1058896262996	7400.395739722291	929.8125621567136	-521.9709148445266	7391.704470440172	942.021467975879	-533.5479512366976	7398.2651384402925	943.2536159871108	-562.9245895415743	7403.374389407644	941.7164924225217	-584.9766578138807	7408.096047957008	938.3860340076487	-604.7242848171442	7391.316029714441	935.0434996162955	-539.2842567158873	7386.063150778499	932.0402199156234	-576.1642520978787	7390.570722394847	927.3435420641699	-607.387270294363	7397.821200372374	925.1769439499553	-625.6891485556068	7406.822813828183	923.8917925419674	-640.0892419163089	7393.356664317439	928.5095953864146	-542.6007022776367	7389.334614230029	922.046837174261	-580.364621944066	7394.549763678339	916.0661804087802	-614.7600596151366	7403.439489123726	913.041662169525	-636.9965125452416	7413.358061332862	911.4358663092037	-652.8286136550224	7394.852016439944	923.9802430479516	-543.9639734686066	7392.31029965769	914.2863999957904	-578.8782410726146	7397.166117751852	908.2091482410765	-609.1304406081878	7405.905746492424	904.8326701412379	-630.7242463985224	7415.309795391591	903.1052649610261	-645.6791111574237	7397.361037762568	918.7664728765374	-544.7714535361422	7396.30511332107	906.6943659408585	-577.1745485569411	7400.689210898423	900.5214278989573	-601.6733397605552	7407.303738691264	897.426612272794	-617.556469407793	7415.772205337913	895.5326922763994	-630.8803150637907
70	0.575	7446.805	859.65103	-201.189	7538.860151872434	859.5561479174343	-228.99510818414691	7398.139805400354	467.9552621143942	-281.0588048716517	7426.18804372466	44.41921706285543	-333.2265224169604	7343.731259769391	-32.677349355083116	-173.38768776808485	7364.106677001355	831.7698715703116	-159.76767987157288	7244.453442519066	434.23097798703975	-104.38067790303401	7192.727666243663	59.8941155950848	74.51045504661451	7225.554475711324	20.522488029373736	258.1511677274515	7400.276686998507	981.8356270675226	-259.0860624512113	7347.192626685516	1047.365477624161	-307.0929100022379	7285.84097442922	1109.6502071358811	-357.810381829051	7218.594825418539	1158.9153079319542	-407.5761651666591	7146.049225804016	1212.0645477677494	-457.4167523468067	7106.035577587277	1285.419406393115	-412.36847686115505	7083.002804259049	1369.3152514293322	-278.40317508896493	7191.223138438994	1203.8984892108485	-459.8370878701678	7278.081492086772	1217.3221223293988	-538.5223245267736	7360.79878432998	994.6926185817384	-578.1500918488545	7464.361770212599	896.7541195134802	-682.8791488785414	7473.59679686766	903.4284024663198	-698.9223280012656	7467.945710595132	903.2611327379587	-721.1538356178996	7464.705126499576	900.722892536274	-735.7578815757659	7462.5980042166	896.5351222216376	-747.181554554414	7478.879230989407	895.3128445932829	-696.590330949261	7495.221898221546	884.3293332762004	-717.1326995036169	7496.209000105672	876.9346837001536	-734.9355287183123	7489.287760975489	875.2990081588749	-747.0499170005387	7478.47652153493	875.9428375533327	-757.7828049088353	7479.706597094649	889.1201786874449	-693.6540870307953	7496.097228667516	875.0575070928952	-712.1012792972388	7497.217538871732	866.2072991418902	-731.0780241175335	7488.888024894667	863.8590673093665	-745.4778018302626	7477.068627187329	864.3813043203461	-757.1166237598569	7479.987344096426	885.0048002906689	-691.0181569310839	7495.251675341838	868.7692871579889	-705.153315125847	7496.2451997294565	860.2793668872288	-721.20523675712	7488.219762810494	857.6021917208743	-734.8356610274656	7477.110827221898	857.8979368022162	-745.6562087104793	7478.945305462742	880.7416356514005	-687.6785338751291	7492.6885357644505	863.1498159349428	-698.4659396596041	7493.443320920215	855.2116335859387	-710.4965837246987	7487.5698014625905	852.7075488568896	-720.0404908668249	7477.717732638296	852.6522266914754	-729.3965801707543	7148.298535011231	1187.9370912440593	-419.5903506783781	7086.039408272795	1113.1472091614162	-349.61400680761017	7199.093022740618	993.2910120777995	-534.7899067395676	7403.15128023408	934.2449542892563	-524.1982053798744	7394.953007079741	946.9909200596048	-535.8586416069749	7401.9217070867935	948.5240992895726	-565.301878504885	7407.244457317639	947.1898418997214	-587.422538520058	7412.083658094507	944.0227109835977	-607.2463497266104	7394.348860744289	940.0695269026858	-541.6934494472165	7389.2908830519045	937.8116146721067	-578.8852167198207	7393.975007357716	933.4649721346315	-610.2652400310972	7401.400139974729	931.3710876948923	-628.5895311410127	7410.590086639457	930.0483796449381	-642.9574527510861	7396.192488494368	933.4832438789002	-545.0566080837565	7392.253966465706	927.7192111032733	-583.1499048950453	7397.635194257829	922.1109728716631	-617.7217439256348	7406.72288141738	919.1696027542774	-639.987673433998	7416.841324743782	917.520487322237	-655.7857571566511	7397.542843096695	928.8996820212094	-546.4457421791295	7394.947662277677	919.7902938829093	-581.6800359207148	7399.9209494741	914.0267717508541	-612.0906491554308	7408.83703798877	910.7247227316295	-633.7153628795039	7418.422149707123	908.9538499569762	-648.6394156502996	7399.885706544706	923.5875271508903	-547.267569762627	7398.675558524001	911.9971615346182	-579.9758749881099	7403.111391986089	906.0559231926937	-604.6073890322466	7409.8341543365295	903.005952317194	-620.5159030513419	7418.451229004956	901.0680919161814	-633.8140887480317
71	0.583	7446.805	859.65103	-201.189	7539.274319418394	859.8820684512003	-228.5755436681588	7398.346195809463	468.2032175594892	-279.9963578544057	7426.484993194207	44.37646151802345	-331.1745770202774	7343.842887772962	-32.57413339743786	-171.15210860719455	7363.677629784749	831.4220905947903	-160.21955880404857	7243.9848487916925	433.90553191669596	-104.73536559555488	7192.312110167103	60.07253801114919	75.37287912701414	7225.350875613809	21.19467155004903	259.1165022367496	7400.31706972771	981.9113136825945	-258.971100856879	7347.315041684239	1047.54214662316	-306.9478342480043	7286.078342398276	1109.9704828417441	-357.6604583268008	7218.958050306369	1159.392202513439	-407.48150575130893	7146.54816283235	1212.7093952941834	-457.39328258677955	7106.766695882842	1286.127001743706	-412.20229570463925	7083.567003791103	1369.8619524041137	-278.1369472652292	7191.858504304313	1204.7585114731874	-459.65845907182637	7279.578124232499	1219.4803667314068	-538.0633880429684	7364.712858639807	997.1921339847393	-579.3033926687511	7470.792272971878	902.2132194826718	-686.4973475659757	7480.294370780719	909.5221485183215	-702.3333916526725	7474.974578549607	909.8503189396225	-724.8727934989948	7471.978437111153	907.6298660667255	-739.7609814076425	7470.086841294035	903.6837205230153	-751.4811786195162	7485.65375232329	901.3832630769241	-700.2007958996085	7502.559128446562	891.1633450057741	-721.126560370973	7503.920580190524	884.2141737722296	-739.364654744511	7497.167762974386	882.7712322914101	-751.7555680047858	7486.452546381742	883.5177787730609	-762.7213292892634	7486.498055386192	895.0858554479264	-697.4488537415023	7503.446702444757	881.7113393896891	-716.3696397415814	7504.975890806201	873.3308323417699	-735.8446304361437	7496.8497576764985	871.207254711402	-750.589199108599	7485.135516723058	871.8380557190853	-762.4882587340393	7486.776785686134	890.877837524702	-694.9321707338072	7502.540561904149	875.1811070898558	-709.5918307323412	7503.889979063983	867.0827188402341	-726.1010916760912	7496.060460359958	864.6127550587469	-740.0763437492379	7485.0502758927705	865.0060826009159	-751.1473852059021	7485.713152320831	886.4791126779816	-691.728162467895	7499.902603471627	869.3009748420063	-703.0764137026923	7500.93943381684	861.6460957882773	-715.5069856111754	7495.207395454074	859.2785329482539	-725.3187170675087	7485.4419854395865	859.3012396061513	-734.9060870673723	7148.549238828244	1188.241052371926	-419.64060575414766	7085.4721452196945	1112.5001300681192	-350.46983423905334	7199.755771532803	994.6800662995719	-537.4459114388314	7405.878270285818	938.6748114984271	-526.3937577732592	7398.173345456748	951.955006540408	-538.1320507182197	7405.547901242903	953.7873033514333	-567.6380250963298	7411.0828539980475	952.6548966097213	-589.8249155755475	7416.038703133069	949.650517888328	-609.7232227447673	7397.354654333894	945.0910338837252	-544.0658706730602	7392.493210805716	943.5767689466309	-581.563608287862	7397.3531854927405	939.5791346102449	-613.0974328818526	7404.9512219497765	937.5572937299381	-631.4427858339513	7414.327166236213	936.1964530954667	-645.7778497146616	7399.001726064495	938.4533025601644	-547.476874949992	7395.148569177433	933.3868206689833	-585.8945026186072	7400.695160848928	928.1500087552995	-620.6394162891226	7409.978722345978	925.2910399863775	-642.9332736796474	7420.2944933367135	923.5980047906777	-658.696628927076	7400.207380416794	933.816232478642	-548.8928126780754	7397.560699763374	925.2908554101019	-584.4434048240269	7402.650883250857	919.840331343515	-615.0097132531479	7411.741444606341	916.6120618515138	-636.6639372329546	7421.50524021716	914.7971906867656	-651.5565549848784	7402.384220402358	928.4065509858033	-549.7302989879645	7401.0218022849585	917.2980480612504	-582.7411767605895	7405.508982108592	911.5881334527642	-607.5035355781492	7412.338563195207	908.5826350474298	-623.4365590425581	7421.102157798145	906.6004224601509	-636.7086160625959
